HIERARCHY
ROOT Hips
{
  OFFSET 53.2347 96.0459 6.99658
  CHANNELS 6 Xposition Yposition Zposition Zrotation Xrotation Yrotation
  JOINT spine
  {
    OFFSET 0 8.13249 0.467659
    CHANNELS 3 Zrotation Xrotation Yrotation
    JOINT spine1
    {
      OFFSET 0 10.3498 0
      CHANNELS 3 Zrotation Xrotation Yrotation
      JOINT spine2
      {
        OFFSET 0 9.91699 0
        CHANNELS 3 Zrotation Xrotation Yrotation
        JOINT Neck
        {
          OFFSET 0 25.461 1.2139
          CHANNELS 3 Zrotation Xrotation Yrotation
          JOINT Head
          {
            OFFSET 0 7.69245 0
            CHANNELS 3 Zrotation Xrotation Yrotation
            End Site
            {
              OFFSET 0 18.62 -6.14063
            }
          }
        }
        JOINT RightShoulder
        {
          OFFSET -4.17575 10.7096 -0.581445
          CHANNELS 3 Zrotation Xrotation Yrotation
          JOINT RightArm
          {
            OFFSET 0 14.0466 0
            CHANNELS 3 Zrotation Xrotation Yrotation
            JOINT RightArmRoll
            {
              OFFSET 0 7.09098 0
              CHANNELS 3 Zrotation Xrotation Yrotation
              JOINT RightForeArm
              {
                OFFSET 0 20.6535 0
                CHANNELS 3 Zrotation Xrotation Yrotation
                JOINT RightForeArmRoll
                {
                  OFFSET 0 7.95718 0
                  CHANNELS 3 Zrotation Xrotation Yrotation
                  JOINT RightHand
                  {
                    OFFSET 0 15.9683 0
                    CHANNELS 3 Zrotation Xrotation Yrotation
                    End Site
                    {
                      OFFSET 0 0 0
                    }
                  }
                }
              }
            }
          }
        }
        JOINT LeftShoulder
        {
          OFFSET 4.17575 10.7096 -0.581445
          CHANNELS 3 Zrotation Xrotation Yrotation
          JOINT LeftArm
          {
            OFFSET 0 14.0466 0
            CHANNELS 3 Zrotation Xrotation Yrotation
            JOINT LeftArmRoll
            {
              OFFSET 0 7.09098 0
              CHANNELS 3 Zrotation Xrotation Yrotation
              JOINT LeftForeArm
              {
                OFFSET 0 20.6535 0
                CHANNELS 3 Zrotation Xrotation Yrotation
                JOINT LeftForeArmRoll
                {
                  OFFSET 0 7.95718 0
                  CHANNELS 3 Zrotation Xrotation Yrotation
                  JOINT LeftHand
                  {
                    OFFSET 0 15.9683 0
                    CHANNELS 3 Zrotation Xrotation Yrotation
                    End Site
                    {
                      OFFSET 0 0 0
                    }
                  }
                }
              }
            }
          }
        }
      }
    }
  }
  JOINT RightUpLeg
  {
    OFFSET -7.20834 -1.32182 -1.10884
    CHANNELS 3 Zrotation Xrotation Yrotation
    JOINT RightUpLegRoll
    {
      OFFSET 0 18.7238 0
      CHANNELS 3 Zrotation Xrotation Yrotation
      JOINT RightLeg
      {
        OFFSET 0 -23.1866 0
        CHANNELS 3 Zrotation Xrotation Yrotation
        JOINT RightLegRoll
        {
          OFFSET 0 23.2624 0
          CHANNELS 3 Zrotation Xrotation Yrotation
          JOINT RightFoot
          {
            OFFSET 0 19.3621 0
            CHANNELS 3 Zrotation Xrotation Yrotation
            JOINT RightToeBase
            {
              OFFSET 0 16.1857 0
              CHANNELS 3 Zrotation Xrotation Yrotation
              End Site
              {
                OFFSET 0.00686052 7.83863 -0.903522
              }
            }
          }
        }
      }
    }
  }
  JOINT LeftUpLeg
  {
    OFFSET 7.20834 -1.32182 -1.10884
    CHANNELS 3 Zrotation Xrotation Yrotation
    JOINT LeftUpLegRoll
    {
      OFFSET 0 18.7239 0
      CHANNELS 3 Zrotation Xrotation Yrotation
      JOINT LeftLeg
      {
        OFFSET 0 23.1865 0
        CHANNELS 3 Zrotation Xrotation Yrotation
        JOINT LeftLegRoll
        {
          OFFSET 0 23.4775 0
          CHANNELS 3 Zrotation Xrotation Yrotation
          JOINT LeftFoot
          {
            OFFSET 0 19.147 0
            CHANNELS 3 Zrotation Xrotation Yrotation
            JOINT LeftToeBase
            {
              OFFSET 0 16.1857 0
              CHANNELS 3 Zrotation Xrotation Yrotation
              End Site
              {
                OFFSET -0.0307459 7.83863 -0.903522
              }
            }
          }
        }
      }
    }
  }
}
MOTION
Frames: 9
Frame Time: 0.00208333
53.1795 96.0498 6.85135 -1.02467 -3.37314 0.0272232 0.505612 -1.25418 0.0386319 1.01186 1.47798 0.0251602 1.01223 3.12291 0.0081597 -6.63439 11.2927 -2.73072 4.92555 -4.55501 -3.72387 58.8095 -8.38877 -5.20894 109.985 19.1095 24.7395 1.5915e-006 -2.57783e-007 -7.76797e-006 2.99161 0.492092 -0.482194 2.36719e-006 -2.25409e-006 -3.00221 8.02988 -4.95141 0.697664 -63.4799 -7.62216 4.87948 -107.202 17.2371 -14.224 6.63708e-006 6.29243e-007 2.22327e-006 -5.95724 0.0454363 1.30555 -2.23995e-006 -1.36353e-007 3.03494 -8.0294 -4.95143 -0.697676 173.509 2.41928 2.98628 180 7.01567e-015 179.015 179.34 11.5544 179.515 -5.4299e-007 -1.14586e-006 0.0734411 -17.5441 68.8304 20.1694 8.13649 25.2326 -3.48773 -172.355 0.966872 -2.06893 4.5067e-006 -1.99009e-005 -0.933834 -0.853043 -13.708 0.532154 -1.36568e-006 -1.61706e-006 -0.228846 20.3305 72.2515 -23.5736 -8.1367 25.2357 3.4837 
53.1784 96.0492 6.85544 -1.02488 -3.37081 0.0274819 0.505362 -1.25595 0.03819 1.01109 1.4764 0.0241066 1.01148 3.12134 0.00712279 -6.62436 11.3062 -2.7288 4.91527 -4.55841 -3.72143 58.8194 -8.39642 -5.21396 109.979 19.1206 24.7841 1.5915e-006 -2.57783e-007 -7.76797e-006 2.95585 0.464207 -0.478816 2.36719e-006 -2.25409e-006 -3.00221 8.02988 -4.95141 0.697664 -63.4728 -7.62484 4.8808 -107.214 17.2256 -14.3008 6.63708e-006 6.29243e-007 2.22327e-006 -5.91348 0.0452629 1.30715 -2.23995e-006 -1.36353e-007 3.03494 -8.0294 -4.95143 -0.697676 173.509 2.41452 2.9888 180 7.01567e-015 179.015 179.336 11.5431 179.516 -5.4299e-007 -1.14586e-006 0.0727047 -17.5387 68.8231 20.1657 8.13649 25.2326 -3.48773 -172.356 0.967367 -2.06781 4.5067e-006 -1.99009e-005 -0.933834 -0.852384 -13.7077 0.532315 -1.36568e-006 -1.61706e-006 -0.228846 20.3359 72.2527 -23.5784 -8.1367 25.2357 3.4837 
53.1826 96.0491 6.85601 -1.02509 -3.3685 0.0277921 0.505069 -1.25776 0.0377475 1.01025 1.47483 0.0230375 1.01066 3.11976 0.00607192 -6.6138 11.3199 -2.72695 4.9048 -4.56202 -3.71895 58.8298 -8.40399 -5.21894 109.972 19.132 24.8277 1.5915e-006 -2.57783e-007 -7.76797e-006 2.92084 0.435503 -0.475448 2.36719e-006 -2.25409e-006 -3.00221 8.02988 -4.95141 0.697664 -63.4655 -7.62738 4.88203 -107.226 17.2137 -14.3771 6.63708e-006 6.29243e-007 2.22327e-006 -5.86999 0.0450971 1.3087 -2.23995e-006 -1.36353e-007 3.03494 -8.0294 -4.95143 -0.697676 173.508 2.40987 2.99135 180 7.01567e-015 179.015 179.333 11.5322 179.516 -5.4299e-007 -1.14586e-006 0.0719793 -17.5335 68.8159 20.1621 8.13649 25.2326 -3.48773 -172.356 0.967916 -2.06663 4.5067e-006 -1.99009e-005 -0.933834 -0.851677 -13.7075 0.532486 -1.36568e-006 -1.61706e-006 -0.228846 20.3416 72.254 -23.5835 -8.1367 25.2357 3.4837 
53.1865 96.0481 6.85733 -1.02529 -3.3662 0.0281383 0.504747 -1.2596 0.0373046 1.00935 1.47326 0.0219575 1.00978 3.11819 0.00501127 -6.60288 11.3337 -2.72513 4.89419 -4.56578 -3.71642 58.8406 -8.4115 -5.2239 109.965 19.1437 24.8706 1.5915e-006 -2.57783e-007 -7.76797e-006 2.88636 0.406227 -0.472089 2.36719e-006 -2.25409e-006 -3.00221 8.02988 -4.95141 0.697664 -63.4579 -7.62981 4.88319 -107.238 17.2016 -14.4531 6.63708e-006 6.29243e-007 2.22327e-006 -5.82669 0.0449367 1.31023 -2.23995e-006 -1.36353e-007 3.03494 -8.0294 -4.95143 -0.697676 173.507 2.4053 2.99391 180 7.01567e-015 179.015 179.329 11.5214 179.517 -5.4299e-007 -1.14586e-006 0.0712615 -17.5285 68.8088 20.1587 8.13649 25.2326 -3.48773 -172.357 0.968503 -2.06542 4.5067e-006 -1.99009e-005 -0.933834 -0.850935 -13.7074 0.532663 -1.36568e-006 -1.61706e-006 -0.228846 20.3474 72.2554 -23.5886 -8.1367 25.2357 3.4837 
53.1771 96.0464 6.85947 -1.02548 -3.36391 0.0285051 0.504408 -1.26145 0.0368615 1.00842 1.47169 0.0208713 1.00887 3.11662 0.00394505 -6.59175 11.3476 -2.72334 4.8835 -4.56962 -3.71388 58.8517 -8.41897 -5.22884 109.958 19.1554 24.9132 1.5915e-006 -2.57783e-007 -7.76797e-006 2.85218 0.376624 -0.468734 2.36719e-006 -2.25409e-006 -3.00221 8.02988 -4.95141 0.697664 -63.4502 -7.63219 4.88432 -107.251 17.1893 -14.5289 6.63708e-006 6.29243e-007 2.22327e-006 -5.7835 0.0447793 1.31173 -2.23995e-006 -1.36353e-007 3.03494 -8.0294 -4.95143 -0.697676 173.507 2.40078 2.99648 180 7.01567e-015 179.015 179.326 11.5106 179.517 -5.4299e-007 -1.14586e-006 0.0705481 -17.5236 68.8017 20.1554 8.13649 25.2326 -3.48773 -172.357 0.969111 -2.06419 4.5067e-006 -1.99009e-005 -0.933834 -0.850174 -13.7073 0.532845 -1.36568e-006 -1.61706e-006 -0.228846 20.3533 72.2567 -23.5939 -8.1367 25.2357 3.4837 
53.1825 96.0501 6.8738 -1.02567 -3.36161 0.0288771 0.504065 -1.26331 0.0364183 1.00748 1.47012 0.0197836 1.00795 3.11505 0.00287743 -6.58057 11.3615 -2.72156 4.87278 -4.57348 -3.71134 58.8628 -8.42643 -5.23377 109.951 19.1672 24.9557 1.5915e-006 -2.57783e-007 -7.76797e-006 2.81807 0.346939 -0.46538 2.36719e-006 -2.25409e-006 -3.00221 8.02988 -4.95141 0.697664 -63.4425 -7.63455 4.88544 -107.263 17.1769 -14.6047 6.63708e-006 6.29243e-007 2.22327e-006 -5.74034 0.0446227 1.31323 -2.23995e-006 -1.36353e-007 3.03494 -8.0294 -4.95143 -0.697676 173.506 2.39626 2.99904 180 7.01567e-015 179.015 179.323 11.5 179.518 -5.4299e-007 -1.14586e-006 0.0698358 -17.5188 68.7946 20.1521 8.13649 25.2326 -3.48773 -172.358 0.969725 -2.06295 4.5067e-006 -1.99009e-005 -0.933834 -0.849408 -13.7072 0.533027 -1.36568e-006 -1.61706e-006 -0.228846 20.3592 72.258 -23.5992 -8.1367 25.2357 3.4837 
53.1849 96.0493 6.87312 -1.02587 -3.35931 0.0292387 0.50373 -1.26517 0.0359753 1.00656 1.46855 0.0186989 1.00705 3.11348 0.00181261 -6.56949 11.3753 -2.71976 4.86211 -4.5773 -3.70881 58.8738 -8.43391 -5.23871 109.944 19.1788 24.9984 1.5915e-006 -2.57783e-007 -7.76797e-006 2.78382 0.317418 -0.462025 2.36719e-006 -2.25409e-006 -3.00221 8.02988 -4.95141 0.697664 -63.4348 -7.63694 4.88657 -107.276 17.1646 -14.6805 6.63708e-006 6.29243e-007 2.22327e-006 -5.69712 0.0444646 1.31474 -2.23995e-006 -1.36353e-007 3.03494 -8.0294 -4.95143 -0.697676 173.505 2.39173 3.00161 180 7.01567e-015 179.015 179.319 11.4892 179.518 -5.4299e-007 -1.14586e-006 0.0691213 -17.5139 68.7875 20.1487 8.13649 25.2326 -3.48773 -172.359 0.970328 -2.06172 4.5067e-006 -1.99009e-005 -0.933834 -0.848651 -13.7072 0.533207 -1.36568e-006 -1.61706e-006 -0.228846 20.3651 72.2594 -23.6044 -8.1367 25.2357 3.4837 
53.1834 96.0378 6.86722 -1.02607 -3.35701 0.0295746 0.503416 -1.267 0.0355325 1.00567 1.46698 0.0176221 1.00618 3.11191 0.000754769 -6.55868 11.3891 -2.71794 4.85154 -4.58102 -3.70629 58.8845 -8.44143 -5.24368 109.937 19.1903 25.0415 1.5915e-006 -2.57783e-007 -7.76797e-006 2.7492 0.288305 -0.458663 2.36719e-006 -2.25409e-006 -3.00221 8.02988 -4.95141 0.697664 -63.4273 -7.63941 4.88776 -107.288 17.1524 -14.7566 6.63708e-006 6.29243e-007 2.22327e-006 -5.65377 0.0443027 1.31627 -2.23995e-006 -1.36353e-007 3.03494 -8.0294 -4.95143 -0.697676 173.505 2.38713 3.00416 180 7.01567e-015 179.015 179.316 11.4784 179.519 -5.4299e-007 -1.14586e-006 0.0684013 -17.5088 68.7804 20.1453 8.13649 25.2326 -3.48773 -172.359 0.970904 -2.06052 4.5067e-006 -1.99009e-005 -0.933834 -0.84792 -13.707 0.533383 -1.36568e-006 -1.61706e-006 -0.228846 20.3708 72.2607 -23.6096 -8.1367 25.2357 3.4837 
53.1898 96.0403 6.87246 -1.02627 -3.35469 0.0298694 0.503136 -1.26879 0.0350902 1.00485 1.46541 0.0165576 1.00538 3.11033 -0.000291895 -6.54829 11.4027 -2.71606 4.84113 -4.58457 -3.70382 58.8948 -8.44902 -5.24868 109.931 19.2015 25.0855 1.5915e-006 -2.57783e-007 -7.76797e-006 2.71399 0.259847 -0.455294 2.36719e-006 -2.25409e-006 -3.00221 8.02988 -4.95141 0.697664 -63.42 -7.64198 4.88901 -107.301 17.1405 -14.833 6.63708e-006 6.29243e-007 2.22327e-006 -5.6102 0.0441346 1.31784 -2.23995e-006 -1.36353e-007 3.03494 -8.0294 -4.95143 -0.697676 173.504 2.38245 3.0067 180 7.01567e-015 179.015 179.313 11.4673 179.52 -5.42989e-007 -1.14586e-006 0.0676726 -17.5036 68.7731 20.1417 8.13649 25.2326 -3.48773 -172.36 0.971437 -2.05936 4.5067e-006 -1.99009e-005 -0.933834 -0.847227 -13.7068 0.53355 -1.36568e-006 -1.61706e-006 -0.228846 20.3764 72.262 -23.6145 -8.1367 25.2357 3.4837 
